<svg width="170" height="170" viewBox="0 0 170 170" fill="none" xmlns="http://www.w3.org/2000/svg">
<path d="M122.319 107.242C128.311 110.01 134.184 112.735 140.097 115.371C141.377 115.941 142.784 116.253 144.161 116.558C144.642 116.664 145.446 116.556 145.666 116.241C145.881 115.932 145.715 115.088 145.415 114.734C143.502 112.472 141.651 110.127 139.505 108.1C135.692 104.499 131.685 101.103 127.788 97.4535C128.328 97.7066 128.916 97.8904 129.402 98.223C139.897 105.41 150.284 112.751 159.59 121.468C161.588 123.339 163.317 125.574 164.827 127.866C166.361 130.194 165.455 131.733 162.676 132.059C158.767 132.518 155.058 131.463 151.379 130.396C141.439 127.514 131.963 123.415 122.563 119.15C115.281 115.846 108.079 112.364 100.728 108.908C98.0487 112.512 96.0484 116.635 94.4496 120.973C91.2085 129.768 89.5014 138.929 88.0795 148.144C86.9803 155.267 86.0964 162.423 84.9274 169.635C84.7024 168.097 84.4942 166.557 84.2497 165.022C82.5649 154.449 81.1035 143.833 79.1094 133.318C77.5127 124.899 74.7472 116.809 69.8612 109.609C64.8361 102.204 57.723 97.6009 49.5137 94.5007C40.0478 90.926 30.1497 89.155 20.1967 87.6717C13.4791 86.6706 6.73941 85.8175 0 84.8109C15.0169 82.7715 30.1111 81.189 44.9663 76.7876C40.8649 73.8523 36.9598 71.1265 33.1283 68.301C25.1603 62.4253 17.2289 56.486 10.2939 49.3795C8.34365 47.3811 6.62255 45.0724 5.2007 42.667C3.44888 39.7034 4.73999 37.715 8.17019 37.5784C12.8901 37.3903 17.3308 38.7829 21.7192 40.2004C35.1571 44.541 47.9991 50.352 60.7679 56.3276C61.0046 56.4383 61.2121 56.6117 61.4332 56.7559C61.3802 56.8876 61.3272 57.0194 61.2742 57.1511C60.1115 56.7285 58.9466 56.3116 57.7862 55.8824C49.3832 52.7742 41.0455 49.4573 32.2071 47.7212C31.1075 47.5053 29.964 47.3745 28.85 47.4215C28.1561 47.4509 27.4796 47.8888 26.7952 48.1434C26.7119 48.362 26.6286 48.5806 26.5453 48.7992C28.0726 50.3225 29.4582 52.0292 31.1512 53.3383C39.7963 60.0234 49.3037 65.3413 58.8163 70.588C67.4268 65.2776 72.5216 57.3877 75.8114 48.1423C79.0691 38.9868 80.8196 29.4827 82.2006 19.905C83.1256 13.4888 83.8959 7.05023 84.7418 0.622518C84.7696 0.411725 84.8678 0.210211 85.1856 0C85.5334 2.89059 85.847 5.78579 86.2351 8.67096C87.7176 19.691 89.2122 30.7125 92.1381 41.4701C94.1043 48.6989 96.7281 55.65 101.349 61.6704C106.432 68.293 113.226 72.4861 120.944 75.3441C129.358 78.4597 138.106 80.1989 146.936 81.5454C154.603 82.7145 162.295 83.7218 170.009 84.9571C166.535 85.4018 163.06 85.8363 159.588 86.2929C148.503 87.7505 137.438 89.3264 126.669 92.4566C121.068 94.0846 115.653 96.1662 110.734 99.378C110.404 99.5935 110.079 99.8186 109.766 100.057C109.693 100.114 109.676 100.244 109.547 100.536C113.761 102.742 117.988 104.954 122.319 107.242ZM82.0678 53.5839C80.7468 58.2914 79.7929 63.1421 78.024 67.6749C74.8911 75.703 67.9294 79.4216 60.2023 81.6886C55.3604 83.1091 50.3108 83.8215 45.4009 84.8419C45.6692 84.9101 46.0289 85.0111 46.393 85.0926C51.2957 86.1901 56.2553 87.083 61.0877 88.4316C67.1253 90.1166 72.5547 92.9244 76.1272 98.4259C78.753 102.47 80.3858 106.946 81.1616 111.634C82.4281 119.289 83.3464 127.001 84.3926 134.692C84.5779 136.054 84.6705 137.429 84.8059 138.797C85.7075 134.067 85.9939 129.343 86.756 124.698C87.7963 118.357 88.8843 111.992 90.5313 105.792C92.3129 99.0843 96.2993 93.7235 102.815 90.839C106.403 89.2503 110.219 88.1141 114.015 87.0709C117.422 86.1344 120.941 85.604 124.412 84.8944C119.482 83.765 114.574 82.7636 109.736 81.4974C104.998 80.2577 100.568 78.2956 96.9395 74.8557C93.1062 71.2215 91.1238 66.5727 89.7533 61.6115C87.0516 51.831 86.3213 41.7545 85.3309 31.7182C85.2988 31.3925 85.1847 31.0748 85.1089 30.7534C84.4315 34.5024 84.1086 38.2217 83.6693 41.9272C83.2193 45.7236 82.6554 49.5064 82.0678 53.5839Z" fill="#FCFCFC"/>
<path d="M81.6736 81.2935C84.2518 78.0525 84.1934 74.0984 84.9963 70.165C85.536 72.8504 85.9518 75.2348 86.5032 77.5874C87.2997 80.986 89.6258 82.8569 92.9255 83.5812C94.9922 84.0349 97.0883 84.3546 99.199 84.9376C97.9435 85.1577 96.6858 85.3661 95.4332 85.6017C94.492 85.7787 93.553 85.9722 92.6204 86.1903C89.1293 87.0068 87.0145 89.1892 86.3087 92.6931C85.8652 94.8951 85.5068 97.1141 85.0226 99.8143C84.6478 97.6143 84.3499 95.8723 84.0545 94.1299C83.178 88.9597 81.1985 86.8922 76.0651 85.8698C74.2157 85.5015 72.3481 85.2244 70.0994 84.8389C74.2852 83.9882 78.3728 84.0832 81.6736 81.2935Z" fill="#F7F7F7"/>
</svg>
