<svg width="399" height="46" viewBox="0 0 399 46" fill="none" xmlns="http://www.w3.org/2000/svg">
<path d="M3.56525e-05 44.6211V0.311988H3.1828V41.7504H29.6435V44.6211H3.56525e-05ZM65.7806 41.7504V44.6211H36.262V0.311988H65.219V3.18272H39.4448V20.5943H61.9738V23.3402H39.4448V41.7504H65.7806ZM88.391 0.311988H91.137L109.859 44.6211H106.489L100.311 30.0178H79.1548L72.9765 44.6211H69.5441L88.391 0.311988ZM99.4371 27.3967L89.764 4.18124L79.9037 27.3967H99.4371ZM116.587 44.6211V0.311988H131.315C136.016 0.311988 139.906 1.3105 142.985 3.30753C146.106 5.26296 148.435 7.92567 149.975 11.2957C151.556 14.624 152.346 18.3269 152.346 22.4041C152.346 26.8975 151.493 30.8083 149.788 34.1367C148.082 37.4651 145.648 40.0446 142.486 41.8752C139.324 43.7058 135.6 44.6211 131.315 44.6211H116.587ZM149.163 22.4041C149.163 18.7013 148.456 15.3937 147.042 12.4814C145.669 9.56905 143.651 7.30159 140.988 5.67901C138.367 4.01481 135.143 3.18272 131.315 3.18272H119.77V41.7504H131.315C135.184 41.7504 138.45 40.8975 141.113 39.1917C143.776 37.4859 145.773 35.1768 147.104 32.2645C148.477 29.3105 149.163 26.0238 149.163 22.4041ZM178.363 44.9331C175.451 44.9331 172.726 44.3299 170.188 43.1233C167.65 41.9168 165.424 40.2526 163.51 38.1307C161.638 36.0089 160.161 33.5958 159.079 30.8915C158.039 28.1872 157.519 25.3165 157.519 22.2793C157.519 19.2422 158.039 16.3922 159.079 13.7295C160.161 11.0668 161.638 8.69535 163.51 6.61511C165.424 4.53487 167.65 2.91229 170.188 1.74735C172.767 0.582419 175.576 -4.80502e-05 178.613 -4.80502e-05C182.815 -4.80502e-05 186.351 0.894455 189.222 2.68346C192.134 4.43086 194.319 6.76073 195.775 9.67307L190.408 13.5423C189.243 11.1292 187.579 9.31942 185.415 8.11289C183.293 6.90635 180.963 6.30308 178.426 6.30308C176.345 6.30308 174.452 6.73993 172.747 7.61363C171.041 8.48733 169.564 9.69387 168.316 11.2332C167.109 12.731 166.194 14.4576 165.57 16.413C164.946 18.3269 164.634 20.3447 164.634 22.4665C164.634 24.7132 164.987 26.8142 165.695 28.7697C166.402 30.7251 167.4 32.4517 168.69 33.9495C169.98 35.4056 171.498 36.5498 173.246 37.3819C174.993 38.214 176.886 38.63 178.925 38.63C181.338 38.63 183.626 38.0267 185.79 36.8202C187.995 35.5721 190.054 33.7206 191.968 31.266V38.3804C188.099 42.7489 183.564 44.9331 178.363 44.9331ZM191.281 27.3967H181.983V22.2169H197.148V44.6211H191.281V27.3967ZM235.513 38.4428V44.6211H205.12V0.311988H234.951V6.4903H212.11V19.0966H231.893V24.9004H212.11V38.4428H235.513ZM249.713 13.2927V44.6211H242.723V0.311988H248.465L273.552 32.3269V0.374394H280.604V44.6211H274.488L249.713 13.2927ZM305.983 44.6211V0.311988H324.581C326.578 0.311988 328.408 0.728035 330.073 1.56013C331.737 2.39223 333.193 3.49476 334.441 4.86771C335.689 6.24067 336.646 7.78005 337.312 9.48585C337.978 11.1916 338.31 12.939 338.31 14.728C338.31 17.1827 337.749 19.5334 336.625 21.7801C335.544 23.9851 333.983 25.7741 331.945 27.1471C329.948 28.52 327.618 29.2065 324.955 29.2065H312.973V44.6211H305.983ZM312.973 23.0282H324.518C325.85 23.0282 327.015 22.6746 328.013 21.9673C329.012 21.2184 329.781 20.2199 330.322 18.9717C330.905 17.7236 331.196 16.309 331.196 14.728C331.196 13.1055 330.863 11.6701 330.197 10.422C329.532 9.17381 328.658 8.2169 327.576 7.55122C326.536 6.84394 325.392 6.4903 324.144 6.4903H312.973V23.0282ZM362.34 17.9108C359.677 17.9524 357.306 18.5557 355.226 19.7206C353.187 20.8856 351.731 22.5289 350.857 24.6508V44.6211H343.992V11.9821H350.358V19.2838C351.481 17.0371 352.958 15.2481 354.789 13.9168C356.619 12.5438 358.554 11.7949 360.593 11.6701C361.009 11.6701 361.342 11.6701 361.591 11.6701C361.882 11.6701 362.132 11.6909 362.34 11.7325V17.9108ZM381.39 45.2452C378.811 45.2452 376.502 44.8083 374.463 43.9346C372.425 43.0193 370.656 41.7712 369.159 40.1902C367.702 38.6092 366.579 36.8202 365.789 34.8232C364.998 32.7845 364.603 30.6211 364.603 28.3328C364.603 26.0446 364.998 23.8811 365.789 21.8425C366.579 19.8038 367.702 18.0148 369.159 16.4754C370.656 14.8945 372.425 13.6671 374.463 12.7934C376.543 11.8781 378.852 11.4205 381.39 11.4205C383.928 11.4205 386.217 11.8781 388.255 12.7934C390.335 13.6671 392.104 14.8945 393.56 16.4754C395.058 18.0148 396.202 19.8038 396.992 21.8425C397.783 23.8811 398.178 26.0446 398.178 28.3328C398.178 30.6211 397.783 32.7845 396.992 34.8232C396.202 36.8202 395.058 38.6092 393.56 40.1902C392.104 41.7712 390.335 43.0193 388.255 43.9346C386.217 44.8083 383.928 45.2452 381.39 45.2452ZM371.655 28.3952C371.655 30.4755 372.092 32.3477 372.965 34.0119C373.839 35.6761 375.004 36.9866 376.46 37.9435C377.916 38.9004 379.56 39.3789 381.39 39.3789C383.179 39.3789 384.802 38.9004 386.258 37.9435C387.756 36.945 388.942 35.6137 389.815 33.9495C390.689 32.2437 391.126 30.3715 391.126 28.3328C391.126 26.2526 390.689 24.3804 389.815 22.7162C388.942 21.052 387.756 19.7414 386.258 18.7845C384.802 17.786 383.179 17.2867 381.39 17.2867C379.56 17.2867 377.916 17.786 376.46 18.7845C375.004 19.783 373.839 21.1144 372.965 22.7786C372.092 24.4012 371.655 26.2734 371.655 28.3952Z" fill="white"/>
</svg>
