<svg width="306" height="20" viewBox="0 0 306 20" fill="none" xmlns="http://www.w3.org/2000/svg">
<path d="M-0.000117073 14.7827V0.405214H6.03438C6.68238 0.405214 7.27638 0.540214 7.81638 0.810214C8.35638 1.08021 8.82888 1.43796 9.23388 1.88346C9.63888 2.32896 9.94938 2.82846 10.1654 3.38196C10.3814 3.93546 10.4894 4.50246 10.4894 5.08296C10.4894 5.87946 10.3071 6.64221 9.94263 7.37121C9.59163 8.08671 9.08538 8.66721 8.42388 9.11271C7.77588 9.55821 7.01988 9.78096 6.15588 9.78096H2.26788V14.7827H-0.000117073ZM2.26788 7.77621H6.01413C6.44613 7.77621 6.82413 7.66146 7.14813 7.43196C7.47213 7.18896 7.72188 6.86496 7.89738 6.45996C8.08638 6.05496 8.18088 5.59596 8.18088 5.08296C8.18088 4.55646 8.07288 4.09071 7.85688 3.68571C7.64088 3.28071 7.35738 2.97021 7.00638 2.75421C6.66888 2.52471 6.29763 2.40996 5.89263 2.40996H2.26788V7.77621ZM20.3366 14.9852C19.4996 14.9852 18.7503 14.8435 18.0888 14.56C17.4273 14.263 16.8536 13.858 16.3676 13.345C15.8951 12.832 15.5306 12.2515 15.2741 11.6035C15.0176 10.942 14.8893 10.24 14.8893 9.49746C14.8893 8.75496 15.0176 8.05296 15.2741 7.39146C15.5306 6.72996 15.8951 6.14946 16.3676 5.64996C16.8536 5.13696 17.4273 4.73871 18.0888 4.45521C18.7638 4.15821 19.5131 4.00971 20.3366 4.00971C21.1601 4.00971 21.9026 4.15821 22.5641 4.45521C23.2391 4.73871 23.8128 5.13696 24.2853 5.64996C24.7713 6.14946 25.1426 6.72996 25.3991 7.39146C25.6556 8.05296 25.7838 8.75496 25.7838 9.49746C25.7838 10.24 25.6556 10.942 25.3991 11.6035C25.1426 12.2515 24.7713 12.832 24.2853 13.345C23.8128 13.858 23.2391 14.263 22.5641 14.56C21.9026 14.8435 21.1601 14.9852 20.3366 14.9852ZM17.1776 9.51771C17.1776 10.1927 17.3193 10.8002 17.6028 11.3402C17.8863 11.8802 18.2643 12.3055 18.7368 12.616C19.2093 12.9265 19.7426 13.0817 20.3366 13.0817C20.9171 13.0817 21.4436 12.9265 21.9161 12.616C22.4021 12.292 22.7868 11.86 23.0703 11.32C23.3538 10.7665 23.4956 10.159 23.4956 9.49746C23.4956 8.82246 23.3538 8.21496 23.0703 7.67496C22.7868 7.13496 22.4021 6.70971 21.9161 6.39921C21.4436 6.07521 20.9171 5.91321 20.3366 5.91321C19.7426 5.91321 19.2093 6.07521 18.7368 6.39921C18.2643 6.72321 17.8863 7.15521 17.6028 7.69521C17.3193 8.22171 17.1776 8.82921 17.1776 9.51771ZM44.049 4.19196H46.1753L41.7203 14.7827H39.8168L37.9133 10.0037L36.0098 14.7827H34.1063L29.631 4.19196H31.7573L35.1593 12.616L36.6578 8.70771L34.8353 4.21221H36.7185L37.9133 7.51296L39.0878 4.21221H40.971L39.1688 8.70771L40.6673 12.616L44.049 4.19196ZM55.5409 14.9852C54.7174 14.9852 53.9681 14.8435 53.2931 14.56C52.6316 14.263 52.0579 13.8647 51.5719 13.3652C51.0859 12.8522 50.7079 12.2717 50.4379 11.6237C50.1814 10.9622 50.0531 10.2602 50.0531 9.51771C50.0531 8.51871 50.2826 7.60746 50.7416 6.78396C51.2006 5.94696 51.8419 5.27871 52.6654 4.77921C53.4889 4.26621 54.4541 4.00971 55.5611 4.00971C56.6681 4.00971 57.6199 4.26621 58.4164 4.77921C59.2264 5.27871 59.8541 5.94021 60.2996 6.76371C60.7451 7.58721 60.9679 8.47146 60.9679 9.41646C60.9679 9.57846 60.9611 9.73371 60.9476 9.88221C60.9341 10.0172 60.9206 10.132 60.9071 10.2265H52.4224C52.4629 10.8475 52.6316 11.3942 52.9286 11.8667C53.2391 12.3257 53.6306 12.6902 54.1031 12.9602C54.5756 13.2167 55.0819 13.345 55.6219 13.345C56.2159 13.345 56.7761 13.1965 57.3026 12.8995C57.8426 12.6025 58.2071 12.211 58.3961 11.725L60.2996 12.2717C60.0701 12.7847 59.7191 13.2505 59.2466 13.669C58.7876 14.074 58.2409 14.398 57.6064 14.641C56.9719 14.8705 56.2834 14.9852 55.5409 14.9852ZM52.3616 8.74821H58.7606C58.7201 8.14071 58.5446 7.60746 58.2341 7.14846C57.9371 6.67596 57.5524 6.31146 57.0799 6.05496C56.6209 5.78496 56.1079 5.64996 55.5409 5.64996C54.9874 5.64996 54.4744 5.78496 54.0019 6.05496C53.5429 6.31146 53.1649 6.67596 52.8679 7.14846C52.5709 7.60746 52.4021 8.14071 52.3616 8.74821ZM72.1809 6.11571C71.3169 6.12921 70.5474 6.32496 69.8724 6.70296C69.2109 7.08096 68.7384 7.61421 68.4549 8.30271V14.7827H66.2274V4.19196H68.2929V6.56121C68.6574 5.83221 69.1366 5.25171 69.7306 4.81971C70.3246 4.37421 70.9524 4.13121 71.6139 4.09071C71.7489 4.09071 71.8569 4.09071 71.9379 4.09071C72.0324 4.09071 72.1134 4.09746 72.1809 4.11096V6.11571ZM81.8453 14.9852C81.0218 14.9852 80.2726 14.8435 79.5976 14.56C78.9361 14.263 78.3623 13.8647 77.8763 13.3652C77.3903 12.8522 77.0123 12.2717 76.7423 11.6237C76.4858 10.9622 76.3576 10.2602 76.3576 9.51771C76.3576 8.51871 76.5871 7.60746 77.0461 6.78396C77.5051 5.94696 78.1463 5.27871 78.9698 4.77921C79.7933 4.26621 80.7586 4.00971 81.8656 4.00971C82.9726 4.00971 83.9243 4.26621 84.7208 4.77921C85.5308 5.27871 86.1586 5.94021 86.6041 6.76371C87.0496 7.58721 87.2723 8.47146 87.2723 9.41646C87.2723 9.57846 87.2656 9.73371 87.2521 9.88221C87.2386 10.0172 87.2251 10.132 87.2116 10.2265H78.7268C78.7673 10.8475 78.9361 11.3942 79.2331 11.8667C79.5436 12.3257 79.9351 12.6902 80.4076 12.9602C80.8801 13.2167 81.3863 13.345 81.9263 13.345C82.5203 13.345 83.0806 13.1965 83.6071 12.8995C84.1471 12.6025 84.5116 12.211 84.7006 11.725L86.6041 12.2717C86.3746 12.7847 86.0236 13.2505 85.5511 13.669C85.0921 14.074 84.5453 14.398 83.9108 14.641C83.2763 14.8705 82.5878 14.9852 81.8453 14.9852ZM78.6661 8.74821H85.0651C85.0246 8.14071 84.8491 7.60746 84.5386 7.14846C84.2416 6.67596 83.8568 6.31146 83.3843 6.05496C82.9253 5.78496 82.4123 5.64996 81.8453 5.64996C81.2918 5.64996 80.7788 5.78496 80.3063 6.05496C79.8473 6.31146 79.4693 6.67596 79.1723 7.14846C78.8753 7.60746 78.7066 8.14071 78.6661 8.74821ZM91.8635 9.49746C91.8635 8.48496 92.066 7.56696 92.471 6.74346C92.8895 5.90646 93.4565 5.24496 94.172 4.75896C94.8875 4.25946 95.711 4.00971 96.6425 4.00971C97.4525 4.00971 98.1815 4.21896 98.8295 4.63746C99.491 5.05596 100.004 5.57571 100.369 6.19671V0.000214458H102.596V12.2717C102.596 12.5282 102.643 12.7105 102.738 12.8185C102.832 12.9265 102.988 12.9872 103.204 13.0007V14.7827C102.785 14.8502 102.461 14.884 102.232 14.884C101.813 14.884 101.455 14.7625 101.158 14.5195C100.875 14.2765 100.726 13.9862 100.713 13.6487L100.693 12.859C100.288 13.534 99.7408 14.0605 99.0523 14.4385C98.3638 14.803 97.6483 14.9852 96.9058 14.9852C96.1768 14.9852 95.5018 14.8435 94.8808 14.56C94.2733 14.2765 93.74 13.8782 93.281 13.3652C92.8355 12.8522 92.4845 12.265 92.228 11.6035C91.985 10.942 91.8635 10.24 91.8635 9.49746ZM100.369 10.9757V8.20146C100.22 7.76946 99.977 7.38471 99.6395 7.04721C99.3155 6.69621 98.9443 6.41946 98.5258 6.21696C98.1208 6.01446 97.7158 5.91321 97.3108 5.91321C96.8383 5.91321 96.4063 6.01446 96.0148 6.21696C95.6368 6.41946 95.306 6.68946 95.0225 7.02696C94.7525 7.36446 94.5433 7.74921 94.3948 8.18121C94.2463 8.61321 94.172 9.06546 94.172 9.53796C94.172 10.024 94.253 10.483 94.415 10.915C94.577 11.3335 94.8065 11.7115 95.1035 12.049C95.414 12.373 95.765 12.6295 96.1565 12.8185C96.5615 12.994 97.0003 13.0817 97.4728 13.0817C97.7698 13.0817 98.0668 13.0277 98.3638 12.9197C98.6743 12.8117 98.9645 12.6632 99.2345 12.4742C99.518 12.2852 99.7543 12.0625 99.9433 11.806C100.146 11.5495 100.288 11.2727 100.369 10.9757ZM123.024 14.9852C122.214 14.9852 121.478 14.7962 120.817 14.4182C120.169 14.0267 119.656 13.507 119.278 12.859V14.7827H117.314V0.000214458H119.541V6.19671C119.96 5.52171 120.479 4.98846 121.1 4.59696C121.735 4.20546 122.477 4.00971 123.328 4.00971C124.03 4.00971 124.671 4.15821 125.252 4.45521C125.832 4.75221 126.325 5.15721 126.73 5.67021C127.148 6.18321 127.466 6.77046 127.682 7.43196C127.911 8.09346 128.026 8.79546 128.026 9.53796C128.026 10.2805 127.898 10.9825 127.641 11.644C127.398 12.3055 127.047 12.886 126.588 13.3855C126.129 13.885 125.596 14.2765 124.988 14.56C124.394 14.8435 123.74 14.9852 123.024 14.9852ZM122.437 13.0817C122.923 13.0817 123.368 12.9872 123.773 12.7982C124.178 12.5957 124.529 12.3325 124.826 12.0085C125.123 11.6845 125.346 11.3065 125.495 10.8745C125.657 10.4425 125.738 9.99696 125.738 9.53796C125.738 8.90346 125.603 8.30946 125.333 7.75596C125.076 7.20246 124.712 6.75696 124.239 6.41946C123.767 6.08196 123.22 5.91321 122.599 5.91321C122.153 5.91321 121.735 6.02121 121.343 6.23721C120.952 6.43971 120.601 6.71646 120.29 7.06746C119.993 7.40496 119.744 7.78296 119.541 8.20146V10.996C119.622 11.3065 119.764 11.59 119.966 11.8465C120.169 12.0895 120.405 12.3055 120.675 12.4945C120.945 12.67 121.235 12.8117 121.546 12.9197C121.856 13.0277 122.153 13.0817 122.437 13.0817ZM133.48 17.2735C133.683 17.3005 133.878 17.3275 134.067 17.3545C134.27 17.395 134.432 17.4152 134.553 17.4152C134.783 17.4152 134.979 17.341 135.141 17.1925C135.316 17.0575 135.492 16.801 135.667 16.423C135.843 16.045 136.059 15.4982 136.315 14.7827L131.961 4.19196H134.29L137.53 12.5147L140.406 4.19196H142.552L137.753 17.233C137.604 17.6245 137.388 17.9822 137.105 18.3062C136.821 18.6437 136.47 18.907 136.052 19.096C135.633 19.285 135.141 19.3795 134.574 19.3795C134.412 19.3795 134.243 19.366 134.067 19.339C133.892 19.312 133.696 19.2715 133.48 19.2175V17.2735ZM167.127 11.077C167.127 11.8465 166.925 12.508 166.52 13.0615C166.128 13.615 165.595 14.0402 164.92 14.3372C164.245 14.6342 163.502 14.7827 162.692 14.7827H155.828V0.405214H163.239C163.914 0.405214 164.495 0.587464 164.981 0.951964C165.48 1.30296 165.858 1.76196 166.115 2.32896C166.385 2.88246 166.52 3.46296 166.52 4.07046C166.52 4.77246 166.337 5.43396 165.973 6.05496C165.622 6.66246 165.116 7.11471 164.454 7.41171C165.278 7.65471 165.926 8.10021 166.398 8.74821C166.884 9.38271 167.127 10.159 167.127 11.077ZM164.798 10.6517C164.798 10.2467 164.711 9.88221 164.535 9.55821C164.373 9.22071 164.144 8.95071 163.847 8.74821C163.563 8.53221 163.226 8.42421 162.834 8.42421H158.096V12.8185H162.692C163.097 12.8185 163.455 12.724 163.766 12.535C164.09 12.3325 164.339 12.0692 164.515 11.7452C164.704 11.4077 164.798 11.0432 164.798 10.6517ZM158.096 2.36946V6.60171H162.267C162.645 6.60171 162.983 6.51396 163.28 6.33846C163.577 6.14946 163.813 5.89971 163.988 5.58921C164.164 5.26521 164.252 4.90071 164.252 4.49571C164.252 4.07721 164.171 3.71271 164.009 3.40221C163.847 3.07821 163.624 2.82846 163.34 2.65296C163.07 2.46396 162.753 2.36946 162.389 2.36946H158.096ZM172.935 14.7827V0.405214H175.203V12.778H182.918V14.7827H172.935ZM193.762 14.884C192.615 14.884 191.643 14.6882 190.846 14.2967C190.063 13.9052 189.429 13.372 188.943 12.697C188.47 12.022 188.119 11.2525 187.89 10.3885C187.674 9.52446 187.566 8.62671 187.566 7.69521V0.405214H189.834V7.69521C189.834 8.35671 189.901 8.99796 190.036 9.61896C190.171 10.2265 190.387 10.7732 190.684 11.2592C190.981 11.7452 191.379 12.13 191.879 12.4135C192.392 12.697 193.02 12.8387 193.762 12.8387C194.518 12.8387 195.146 12.697 195.645 12.4135C196.158 12.1165 196.557 11.725 196.84 11.239C197.137 10.7395 197.353 10.186 197.488 9.57846C197.623 8.97096 197.691 8.34321 197.691 7.69521V0.405214H199.979V7.69521C199.979 8.68071 199.857 9.61221 199.614 10.4897C199.385 11.3537 199.02 12.1165 198.521 12.778C198.035 13.426 197.4 13.939 196.617 14.317C195.834 14.695 194.883 14.884 193.762 14.884ZM216.299 12.778V14.7827H206.438V0.405214H216.117V2.40996H208.706V6.50046H215.125V8.38371H208.706V12.778H216.299ZM230.586 3.78696C230.451 3.63846 230.256 3.48321 229.999 3.32121C229.743 3.14571 229.439 2.98371 229.088 2.83521C228.737 2.68671 228.359 2.56521 227.954 2.47071C227.549 2.37621 227.13 2.32896 226.698 2.32896C225.753 2.32896 225.051 2.50446 224.592 2.85546C224.133 3.20646 223.904 3.69246 223.904 4.31346C223.904 4.77246 224.032 5.13696 224.289 5.40696C224.545 5.66346 224.937 5.87946 225.463 6.05496C225.99 6.23046 226.651 6.41946 227.448 6.62196C228.42 6.85146 229.263 7.12821 229.979 7.45221C230.694 7.76271 231.241 8.18121 231.619 8.70771C231.997 9.23421 232.186 9.92946 232.186 10.7935C232.186 11.5225 232.051 12.1502 231.781 12.6767C231.511 13.2032 231.133 13.6352 230.647 13.9727C230.161 14.2967 229.601 14.5397 228.966 14.7017C228.332 14.8502 227.65 14.9245 226.921 14.9245C226.206 14.9245 225.49 14.8502 224.775 14.7017C224.073 14.5532 223.398 14.3372 222.75 14.0537C222.115 13.7567 221.528 13.399 220.988 12.9805L222.021 11.0365C222.196 11.212 222.446 11.4077 222.77 11.6237C223.107 11.8262 223.492 12.022 223.924 12.211C224.37 12.4 224.849 12.562 225.362 12.697C225.888 12.8185 226.422 12.8792 226.962 12.8792C227.866 12.8792 228.555 12.724 229.027 12.4135C229.513 12.0895 229.756 11.6305 229.756 11.0365C229.756 10.5505 229.601 10.1657 229.29 9.88221C228.98 9.58521 228.528 9.33546 227.934 9.13296C227.34 8.93046 226.631 8.72796 225.807 8.52546C224.862 8.26896 224.073 7.99221 223.438 7.69521C222.804 7.38471 222.324 6.99321 222 6.52071C221.69 6.03471 221.535 5.42046 221.535 4.67796C221.535 3.73296 221.764 2.93646 222.223 2.28846C222.682 1.62696 223.303 1.13421 224.086 0.810214C224.883 0.472714 225.774 0.303964 226.759 0.303964C227.407 0.303964 228.021 0.378214 228.602 0.526714C229.182 0.661714 229.722 0.850714 230.222 1.09371C230.735 1.33671 231.201 1.61346 231.619 1.92396L230.586 3.78696ZM248.454 2.40996H243.675V14.7827H241.386V2.40996H236.587V0.405214H248.454V2.40996ZM256.631 0.405214H258.777L264.366 14.7827H261.977L260.458 10.8745H254.909L253.411 14.7827H251.001L256.631 0.405214ZM260.012 9.19371L257.704 2.89596L255.314 9.19371H260.012ZM269.587 14.7827V0.405214H275.844C276.492 0.405214 277.086 0.540214 277.626 0.810214C278.166 1.08021 278.632 1.43796 279.023 1.88346C279.428 2.32896 279.739 2.82846 279.955 3.38196C280.184 3.93546 280.299 4.50246 280.299 5.08296C280.299 5.71746 280.184 6.32496 279.955 6.90546C279.725 7.48596 279.394 7.98546 278.962 8.40396C278.544 8.82246 278.051 9.12621 277.484 9.31521L280.866 14.7827H278.314L275.196 9.78096H271.855V14.7827H269.587ZM271.855 7.77621H275.824C276.242 7.77621 276.613 7.65471 276.937 7.41171C277.261 7.16871 277.518 6.84471 277.707 6.43971C277.896 6.02121 277.99 5.56896 277.99 5.08296C277.99 4.58346 277.882 4.13796 277.666 3.74646C277.45 3.34146 277.167 3.01746 276.816 2.77446C276.478 2.53146 276.107 2.40996 275.702 2.40996H271.855V7.77621ZM290.568 0.405214H292.715L298.304 14.7827H295.914L294.396 10.8745H288.847L287.349 14.7827H284.939L290.568 0.405214ZM293.95 9.19371L291.642 2.89596L289.252 9.19371H293.95ZM303.524 14.7827V0.405214H305.792V14.7827H303.524Z" fill="white"/>
</svg>
